HIERARCHY
ROOT root
{
	OFFSET 0.000000 0.000000 0.000000
	CHANNELS 6 Xposition Yposition Zposition Zrotation Yrotation Xrotation
	JOINT lhip
	{
		OFFSET 0.058581 -0.082280 -0.017664
		CHANNELS 3 Zrotation Yrotation Xrotation
		JOINT lknee
		{
			OFFSET 0.043451 -0.386469 0.008037
			CHANNELS 3 Zrotation Yrotation Xrotation
			JOINT lankle
			{
				OFFSET -0.014790 -0.426874 -0.037428
				CHANNELS 3 Zrotation Yrotation Xrotation
				JOINT ltoe
				{
					OFFSET 0.041054 -0.060286 0.122042
					CHANNELS 3 Zrotation Yrotation Xrotation
					End Site
					{
						OFFSET 0.000000 0.000000 0.000000
					}
				}
			}
		}
	}
	JOINT rhip
	{
		OFFSET -0.060310 -0.090513 -0.013543
		CHANNELS 3 Zrotation Yrotation Xrotation
		JOINT rknee
		{
			OFFSET -0.043257 -0.383688 -0.004843
			CHANNELS 3 Zrotation Yrotation Xrotation
			JOINT rankle
			{
				OFFSET 0.019056 -0.420046 -0.034562
				CHANNELS 3 Zrotation Yrotation Xrotation
				JOINT rtoe
				{
					OFFSET -0.034840 -0.062106 0.130323
					CHANNELS 3 Zrotation Yrotation Xrotation
					End Site
					{
						OFFSET 0.000000 0.000000 0.000000
					}
				}
			}
		}
	}
	JOINT lowerback
	{
		OFFSET 0.004439 0.124404 -0.038385
		CHANNELS 3 Zrotation Yrotation Xrotation
		JOINT upperback
		{
			OFFSET 0.004488 0.137956 0.026820
			CHANNELS 3 Zrotation Yrotation Xrotation
			JOINT chest
			{
				OFFSET -0.002265 0.056032 0.002855
				CHANNELS 3 Zrotation Yrotation Xrotation
				JOINT lowerneck
				{
					OFFSET -0.013390 0.211636 -0.033468
					CHANNELS 3 Zrotation Yrotation Xrotation
					JOINT upperneck
					{
						OFFSET 0.010113 0.088937 0.050410
						CHANNELS 3 Zrotation Yrotation Xrotation
						End Site
						{
							OFFSET 0.000000 0.000000 0.000000
						}
					}
				}
				JOINT lclavicle
				{
					OFFSET 0.071702 0.114000 -0.018898
					CHANNELS 3 Zrotation Yrotation Xrotation
					JOINT lshoulder
					{
						OFFSET 0.122921 0.045205 -0.019046
						CHANNELS 3 Zrotation Yrotation Xrotation
						JOINT lelbow
						{
							OFFSET 0.255332 -0.015649 -0.022946
							CHANNELS 3 Zrotation Yrotation Xrotation
							JOINT lwrist
							{
								OFFSET 0.265709 0.012698 -0.007375
								CHANNELS 3 Zrotation Yrotation Xrotation
								End Site
								{
									OFFSET 0.000000 0.000000 0.000000
								}
							}
						}
					}
				}
				JOINT rclavicle
				{
					OFFSET -0.082954 0.112472 -0.023707
					CHANNELS 3 Zrotation Yrotation Xrotation
					JOINT rshoulder
					{
						OFFSET -0.113228 0.046853 -0.008472
						CHANNELS 3 Zrotation Yrotation Xrotation
						JOINT relbow
						{
							OFFSET -0.260127 -0.014369 -0.031269
							CHANNELS 3 Zrotation Yrotation Xrotation
							JOINT rwrist
							{
								OFFSET -0.269108 0.006794 -0.006027
								CHANNELS 3 Zrotation Yrotation Xrotation
								End Site
								{
									OFFSET 0.000000 0.000000 0.000000
								}
							}
						}
					}
				}
			}
		}
	}
}
MOTION
Frames: 10
Frame Time: 0.033333
2.320150 0.658534 0.984611 -75.792528 -0.695201 80.345438 -3.308918 -1.646570 7.320594 -1.475609 -13.754336 6.266410 0.263499 6.966913 -14.162505 0.000000 -0.000000 0.000000 -2.345299 -4.137350 5.763324 -3.765673 -3.831941 15.154090 1.586265 -12.758116 -20.287103 0.000000 -0.000000 0.000000 -0.448266 2.316686 8.825337 -1.905549 -1.736576 2.570991 1.349076 -0.450678 -0.958179 -0.087088 23.171536 -4.250127 -2.402262 22.918612 -3.624521 -23.633313 -7.737947 5.040061 -57.908886 -6.332045 7.761476 6.518772 -18.330485 6.660895 -1.565979 -2.333251 -10.445321 18.543057 10.262689 6.249333 60.933276 6.630663 19.312112 0.017359 26.252921 17.934694 4.621996 -1.511004 -4.468501 
2.319216 0.659040 0.984511 -76.374926 -0.581130 80.407365 -2.975063 -1.429608 7.482791 -1.566827 -13.452500 6.041360 0.140338 6.874117 -14.203201 0.000000 -0.000000 0.000000 -2.112565 -4.283398 5.613447 -3.927162 -3.527921 15.209160 1.322718 -12.421170 -20.207556 0.000000 -0.000000 0.000000 -0.325348 2.384176 8.472683 -1.842770 -1.708540 3.006659 1.369702 -0.383018 -1.009080 0.152539 23.355620 -4.676302 -2.462710 22.796405 -3.793965 -23.869991 -7.731400 4.958393 -57.730904 -6.402328 7.763634 6.539578 -18.234624 6.767752 -1.962229 -2.553744 -10.466884 18.572661 9.925209 6.079099 61.757143 6.690245 19.055236 -1.064005 26.229525 16.490048 5.306526 -1.334158 -5.155940 
2.318987 0.659220 0.984029 -76.963566 -0.639857 80.504175 -2.972372 -1.361230 7.539254 -1.518099 -13.069817 5.807767 0.090679 6.829810 -14.254833 0.000000 -0.000000 0.000000 -2.118396 -4.011846 5.356408 -3.958336 -3.410208 15.353967 1.464709 -12.190264 -20.250775 0.000000 -0.000000 0.000000 -0.218175 2.463885 8.486040 -1.898505 -1.533177 3.322066 1.253349 -0.214085 -1.120951 0.225178 23.555041 -5.395565 -2.583434 22.753194 -4.338621 -24.268341 -7.944222 4.806087 -57.364419 -6.671865 7.758414 6.949205 -18.063903 6.282029 -1.842911 -3.090527 -10.362302 18.932408 9.715512 6.180884 62.256410 6.560303 18.962964 -2.235811 26.283711 15.421989 5.106074 -0.605920 -5.019640 
2.318751 0.659338 0.983184 -77.826867 -0.828042 80.326211 -3.147686 -0.956152 7.826364 -1.448267 -12.910209 5.729604 -0.189079 6.938526 -14.280766 0.000000 -0.000000 0.000000 -2.368397 -3.820385 5.149206 -3.862449 -3.129381 15.881556 1.530102 -11.691355 -20.468533 0.000000 -0.000000 0.000000 0.008418 2.574873 8.903955 -2.318643 -1.151112 3.716817 0.955209 0.221995 -1.140087 -0.023135 23.564240 -6.587332 -2.353239 22.797655 -5.908121 -24.752144 -8.472816 4.217691 -56.318329 -6.622993 7.713163 6.909835 -18.546989 5.530429 -2.203659 -2.982240 -9.663040 19.038998 9.999091 6.034146 62.397729 6.202895 18.672720 -2.571198 26.425912 14.529280 7.040744 -0.796890 -5.114147 
2.318501 0.659334 0.982668 -78.216717 -0.854594 80.219882 -3.198520 -0.930012 7.879495 -1.413964 -12.658546 5.874520 -0.088748 7.112899 -14.403908 0.000000 -0.000000 0.000000 -2.480380 -3.848312 5.135869 -3.687380 -2.966000 15.987498 1.489752 -11.388797 -20.648740 0.000000 -0.000000 0.000000 0.247204 2.578231 9.080595 -2.615111 -0.872209 3.892759 0.682572 0.425236 -0.980204 0.139653 23.572227 -7.078678 -2.312943 22.784865 -6.646903 -24.792465 -8.505137 3.712881 -55.659434 -6.935974 7.680011 6.625931 -18.859065 4.957299 -3.256030 -2.972013 -10.022172 18.975231 9.895167 5.972993 62.138488 6.455913 18.582123 -1.784246 26.170156 14.246385 7.419694 -0.530211 -5.000424 
2.318846 0.659714 0.981982 -78.806863 -0.983886 80.478786 -3.252417 -0.942738 7.362965 -1.560519 -12.192439 6.258005 0.047605 7.229671 -14.519995 0.000000 -0.000000 0.000000 -2.580602 -3.684544 4.568897 -3.663276 -2.974348 16.264415 1.657848 -10.739321 -20.804661 0.000000 -0.000000 0.000000 0.403925 2.753803 9.365812 -2.997019 -0.449446 3.775513 0.326688 0.885808 -1.166627 0.324523 23.535646 -8.115003 -1.668862 22.451105 -6.704812 -25.496618 -9.150506 3.284761 -54.402290 -7.001334 7.772910 7.173906 -18.681819 4.247460 -3.131963 -3.701190 -8.324820 19.592356 10.041639 5.944877 61.502021 5.595839 18.452633 -2.214774 26.626790 14.452832 9.439123 -0.109275 -5.247525 
2.318830 0.659602 0.981948 -79.341491 -1.096972 80.836115 -3.469745 -0.909754 6.951910 -1.389996 -11.975532 6.324584 0.116701 7.395905 -14.715044 0.000000 -0.000000 0.000000 -2.802499 -3.937878 3.940579 -3.627075 -3.030456 16.468224 2.082205 -10.122544 -20.948468 0.000000 -0.000000 0.000000 0.711641 3.117185 9.572312 -3.446409 -0.077030 3.068972 -0.150019 1.325805 -1.015445 0.610470 23.392914 -8.222933 -1.177211 22.029432 -6.873032 -25.629852 -9.216334 2.410686 -53.570866 -7.398456 8.028290 7.102514 -18.163912 4.257316 -3.634381 -3.886493 -7.267904 19.793188 9.616638 5.956172 61.673387 5.134587 18.227407 -2.340424 26.454683 14.040621 10.035121 0.371706 -5.189724 
2.317713 0.659490 0.982578 -79.769548 -1.007977 81.250046 -3.405733 -0.843482 6.646625 -1.245505 -12.005003 6.207675 0.373940 7.638629 -14.830689 0.000000 -0.000000 0.000000 -2.652363 -4.181402 3.521327 -3.587279 -2.654346 16.334812 2.227589 -9.651933 -21.104054 0.000000 -0.000000 0.000000 0.928132 3.441824 9.396206 -3.645729 0.376303 2.550745 -0.309880 1.711373 -1.130186 0.696747 22.905228 -7.911662 -0.808884 21.765576 -6.571599 -25.690657 -8.845417 1.722214 -53.266279 -7.639237 8.086219 7.177510 -18.308363 4.255284 -3.001175 -3.383738 -6.306419 19.889123 9.220755 5.878038 61.792219 4.261415 18.120500 -2.464040 26.093265 14.055485 10.373148 0.240580 -4.772946 
2.318416 0.660511 0.982771 -80.701436 -1.208416 81.222224 -3.708677 -0.828398 6.890983 -1.072651 -11.569614 5.810526 0.432647 8.265632 -14.548992 0.000000 -0.000000 0.000000 -2.639929 -3.489220 3.187395 -3.723481 -2.492848 16.694607 2.381564 -9.506438 -21.009231 0.000000 -0.000000 0.000000 1.262699 3.738284 10.472801 -4.127885 1.047563 1.042038 -0.515918 1.814678 -0.857306 0.689396 22.787927 -7.694351 -0.745093 21.689143 -5.906565 -25.625524 -7.749612 0.817505 -53.187731 -7.832728 7.939426 6.984983 -19.028206 3.655249 -4.324041 -3.031651 -6.413029 19.812737 8.721919 5.715425 61.933124 4.300629 18.251205 -2.056542 25.396088 14.163343 11.049423 -0.301782 -4.326736 
2.316882 0.661968 0.983436 -80.501509 -1.067447 81.537408 -3.366296 -1.027045 6.639131 -1.228296 -11.603533 5.836537 0.672507 8.160175 -14.616148 0.000000 -0.000000 0.000000 -2.310137 -3.634211 3.177279 -3.694098 -2.361640 16.234294 2.212520 -9.801306 -21.004636 0.000000 -0.000000 0.000000 1.076764 3.483418 10.005524 -3.982694 1.034357 0.712008 -0.405842 1.774120 -0.685895 0.567085 22.711292 -7.357749 -0.919894 21.815636 -5.390362 -25.501818 -6.781621 0.876211 -53.312554 -7.814612 7.792947 7.399671 -20.369619 3.818199 -3.440800 -3.187314 -6.897574 19.939204 8.361982 5.756264 61.693846 4.119396 18.751301 -1.346077 24.594788 16.769248 10.061580 0.292730 -1.475081 
